<svg width="17" height="16" viewBox="0 0 17 16" fill="none" xmlns="http://www.w3.org/2000/svg">
<g clip-path="url(#clip0_16_56)">
<path d="M8.80812 14.48C10.5267 14.48 12.1749 13.7973 13.3902 12.5821C14.6054 11.3668 15.2881 9.71861 15.2881 8C15.2881 6.2814 14.6054 4.63319 13.3902 3.41795C12.1749 2.20272 10.5267 1.52 8.80812 1.52C7.08952 1.52 5.44131 2.20272 4.22607 3.41795C3.01084 4.63319 2.32813 6.2814 2.32812 8C2.32813 9.71861 3.01084 11.3668 4.22607 12.5821C5.44131 13.7973 7.08952 14.48 8.80812 14.48Z" stroke="white" stroke-width="1.6" stroke-linecap="round" stroke-linejoin="round"/>
<path d="M11.5191 9.76976C11.2729 10.101 10.9719 10.3861 10.6263 10.6107C9.89957 11.0878 9.01697 11.2666 8.16182 11.11C7.30668 10.9534 6.54471 10.4734 6.03418 9.76976" stroke="white" stroke-width="1.6" stroke-linecap="round" stroke-linejoin="round"/>
<path d="M10.2559 6.3584C10.3739 6.16544 10.6346 6.0416 10.8866 6.0416C11.14 6.0416 11.3992 6.16544 11.5187 6.3584" stroke="white" stroke-width="1.6" stroke-linecap="round" stroke-linejoin="round"/>
<path d="M6.03418 6.3584C6.15226 6.16544 6.4129 6.0416 6.66634 6.0416C6.91834 6.0416 7.17898 6.16544 7.29706 6.3584" stroke="white" stroke-width="1.6" stroke-linecap="round" stroke-linejoin="round"/>
</g>
<defs>
<clipPath id="clip0_16_56">
<rect width="16" height="16" fill="white" transform="translate(0.808594)"/>
</clipPath>
</defs>
</svg>
