<svg width="24" height="24" viewBox="0 0 24 24" fill="none" xmlns="http://www.w3.org/2000/svg">
<g clip-path="url(#clip0_19_914)">
<path d="M21.7013 8.2C21.9094 7.71772 21.9865 7.18906 21.9248 6.66744C21.8631 6.14582 21.6649 5.64971 21.35 5.22927C21.0352 4.80882 20.615 4.47892 20.1318 4.27291C19.6486 4.0669 19.1196 3.99208 18.5983 4.056C18.1556 2.90179 17.3344 1.93189 16.2691 1.30484C15.2037 0.677794 13.9571 0.43069 12.7331 0.603922C11.5091 0.777154 10.3801 1.36048 9.53058 2.25853C8.68106 3.15659 8.16131 4.31627 8.05629 5.548C6.78028 5.66829 5.59965 6.27552 4.75966 7.24356C3.91967 8.2116 3.48489 9.46603 3.54565 10.7463C3.6064 12.0265 4.15802 13.2341 5.0859 14.1183C6.01379 15.0024 7.24662 15.4951 8.52829 15.494H19.4683C20.3197 15.49 21.1476 15.214 21.8312 14.7063C22.5147 14.1986 23.0181 13.4857 23.2679 12.6717C23.5177 11.8577 23.5008 10.9852 23.2197 10.1815C22.9386 9.37774 22.408 8.68488 21.7053 8.204L21.7013 8.2Z" fill="#E3E3E3"/>
<path d="M21.7994 14.713C21.8874 14.1045 21.8337 13.4838 21.6426 12.8994C21.4515 12.315 21.1282 11.7826 20.6977 11.3435C20.2672 10.9045 19.7412 10.5708 19.1606 10.3683C18.58 10.1658 17.9606 10.1 17.3504 10.176C16.8094 8.76442 15.8443 7.55512 14.5879 6.71444C13.3315 5.87376 11.8455 5.44298 10.3343 5.48135C8.82306 5.51972 7.36084 6.02535 6.14872 6.92871C4.9366 7.83207 4.03413 9.08878 3.56543 10.526C3.56991 11.8407 4.0941 13.1003 5.02365 14.0301C5.95321 14.9598 7.21271 15.4843 8.52743 15.489H19.4674C20.3077 15.4863 21.125 15.2143 21.7994 14.713Z" fill="#B2B2B2"/>
<path d="M18.7182 16.156C18.9261 15.6737 19.003 15.145 18.9412 14.6235C18.8794 14.1019 18.681 13.6059 18.366 13.1855C18.0511 12.7652 17.6308 12.4354 17.1476 12.2296C16.6645 12.0237 16.1355 11.949 15.6142 12.013C15.1715 10.8588 14.3503 9.88889 13.285 9.26184C12.2196 8.63479 10.973 8.38769 9.74903 8.56092C8.52502 8.73416 7.39599 9.31748 6.54647 10.2155C5.69695 11.1136 5.1772 12.2733 5.07218 13.505C3.79814 13.6278 2.62019 14.2361 1.7824 15.2037C0.944621 16.1714 0.511231 17.4243 0.572039 18.7028C0.632846 19.9813 1.18319 21.1874 2.10903 22.0712C3.03487 22.9549 4.26524 23.4487 5.54518 23.45H16.4842C17.3356 23.446 18.1635 23.17 18.8471 22.6623C19.5306 22.1546 20.034 21.4417 20.2838 20.6277C20.5335 19.8137 20.5167 18.9412 20.2356 18.1375C19.9544 17.3337 19.4238 16.6409 18.7212 16.16L18.7182 16.156Z" fill="white"/>
<path d="M16.4837 20.316H5.54372C4.50016 20.3111 3.48474 19.9771 2.64197 19.3616C1.79921 18.7462 1.17204 17.8806 0.84972 16.888C0.590953 17.6343 0.514942 18.4317 0.628065 19.2134C0.741188 19.9951 1.04015 20.7383 1.49985 21.3806C1.95956 22.0229 2.56661 22.5456 3.27007 22.9048C3.97352 23.264 4.75287 23.4492 5.54272 23.445H16.4827C17.1416 23.4449 17.7902 23.2812 18.3702 22.9685C18.9502 22.6558 19.4434 22.204 19.8056 21.6535C20.1677 21.1031 20.3875 20.4713 20.4451 19.8149C20.5027 19.1585 20.3964 18.4981 20.1357 17.893C19.8311 18.6103 19.3225 19.2223 18.6731 19.6531C18.0237 20.0838 17.263 20.3143 16.4837 20.316Z" fill="#E3E3E3"/>
<path d="M18.7182 16.156C18.9261 15.6737 19.003 15.145 18.9412 14.6235C18.8794 14.1019 18.681 13.6059 18.366 13.1855C18.0511 12.7652 17.6308 12.4354 17.1476 12.2296C16.6645 12.0237 16.1355 11.949 15.6142 12.013C15.1715 10.8588 14.3503 9.88889 13.285 9.26184C12.2196 8.63479 10.973 8.38769 9.74903 8.56092C8.52502 8.73416 7.39599 9.31748 6.54647 10.2155C5.69695 11.1136 5.1772 12.2733 5.07218 13.505C3.79814 13.6278 2.62019 14.2361 1.7824 15.2037C0.944621 16.1714 0.511231 17.4243 0.572039 18.7028C0.632846 19.9813 1.18319 21.1874 2.10903 22.0712C3.03487 22.9549 4.26524 23.4487 5.54518 23.45H16.4842C17.3356 23.446 18.1635 23.17 18.8471 22.6623C19.5306 22.1546 20.034 21.4417 20.2838 20.6277C20.5335 19.8137 20.5167 18.9412 20.2356 18.1375C19.9544 17.3337 19.4238 16.6409 18.7212 16.16L18.7182 16.156Z" stroke="#191919" stroke-linecap="round" stroke-linejoin="round"/>
<path d="M21.9777 14.58C22.4581 14.189 22.8406 13.6913 23.0946 13.1264C23.3487 12.5615 23.4673 11.9451 23.4411 11.3263C23.4149 10.7074 23.2445 10.1033 22.9436 9.56191C22.6427 9.02054 22.2195 8.55693 21.7077 8.20799C21.9171 7.72512 21.995 7.19545 21.9336 6.67273C21.8722 6.15001 21.6736 5.65284 21.358 5.23164C21.0424 4.81044 20.621 4.4802 20.1366 4.27444C19.6522 4.06867 19.122 3.99468 18.5997 4.05999C18.1525 2.91024 17.3298 1.94542 16.2652 1.32218C15.2005 0.698942 13.9565 0.453889 12.735 0.626813C11.5135 0.799738 10.3864 1.38048 9.53656 2.27475C8.68674 3.16902 8.16418 4.3243 8.05371 5.55299C6.82236 5.67065 5.67906 6.24297 4.84699 7.15825C4.01492 8.07352 3.55382 9.26604 3.55371 10.503" stroke="#191919" stroke-linecap="round" stroke-linejoin="round"/>
</g>
<defs>
<clipPath id="clip0_19_914">
<rect width="24" height="24" fill="white"/>
</clipPath>
</defs>
</svg>
