<svg width="16" height="16" viewBox="0 0 16 16" fill="none" xmlns="http://www.w3.org/2000/svg">
<path d="M12.3197 10.16C12.3197 10.7273 12.2079 11.2891 11.9908 11.8132C11.7737 12.3373 11.4555 12.8136 11.0544 13.2147C10.6532 13.6159 10.177 13.9341 9.65288 14.1512C9.12875 14.3683 8.567 14.48 7.99969 14.48C7.43238 14.48 6.87062 14.3683 6.3465 14.1512C5.82237 13.9341 5.34613 13.6159 4.94499 13.2147C4.54384 12.8136 4.22563 12.3373 4.00853 11.8132C3.79143 11.2891 3.67969 10.7273 3.67969 10.16C3.67969 7.77392 7.99969 1.52 7.99969 1.52C7.99969 1.52 12.3197 7.77392 12.3197 10.16Z" stroke="white" stroke-width="1.6" stroke-linecap="round" stroke-linejoin="round"/>
</svg>
