<svg width="202" height="48" viewBox="0 0 202 48" fill="none" xmlns="http://www.w3.org/2000/svg">
<path fill-rule="evenodd" clip-rule="evenodd" d="M10.9548 17.8828C10.9548 18.6192 10.3578 19.2162 9.62142 19.2162H1.70735C0.970978 19.2162 0.374023 18.6192 0.374023 17.8828C0.374023 17.1464 0.970978 16.5495 1.70735 16.5495H9.62142C10.3578 16.5495 10.9548 17.1464 10.9548 17.8828ZM31.6266 24C31.6266 19.8852 28.2909 16.5495 24.1761 16.5495H14.5381C13.8017 16.5495 13.2048 17.1464 13.2048 17.8828C13.2048 18.6192 13.8017 19.2162 14.5381 19.2162H18.4641C17.6502 20.187 17.0791 21.3683 16.8446 22.6667H10.6162C9.87983 22.6667 9.28287 23.2636 9.28287 24C9.28287 24.7364 9.87983 25.3334 10.6162 25.3334H16.8446C17.0791 26.6318 17.6502 27.8131 18.4641 28.7839H8.13965C7.40327 28.7839 6.80631 29.3808 6.80631 30.1172C6.80631 30.8536 7.40327 31.4506 8.13965 31.4506H24.1761C28.2909 31.4506 31.6266 28.1148 31.6266 24ZM5.66309 25.3334C6.39947 25.3334 6.99642 24.7364 6.99642 24C6.99642 23.2636 6.39947 22.6667 5.66309 22.6667H1.70735C0.970978 22.6667 0.374023 23.2636 0.374023 24C0.374023 24.7364 0.970978 25.3334 1.70735 25.3334H5.66309ZM4.62663 30.1172C4.62663 30.8536 4.02967 31.4506 3.2933 31.4506H1.70735C0.970978 31.4506 0.374023 30.8536 0.374023 30.1172C0.374023 29.3808 0.970978 28.7839 1.70735 28.7839H3.2933C4.02967 28.7839 4.62663 29.3808 4.62663 30.1172Z" fill="white"/>
<path d="M46.112 35L48.928 17.24H41.76L42.528 12.44H62.752L61.984 17.24H54.816L52 35H46.112ZM58.4785 35L60.9745 19.256H66.5105L66.0625 22.008C66.5532 21.0907 67.2252 20.3653 68.0785 19.832C68.9532 19.2987 69.9772 18.9893 71.1505 18.904L72.6865 18.808L72.4305 23.608L68.8785 23.96C67.7478 24.0667 66.9372 24.3867 66.4465 24.92C65.9558 25.4533 65.6252 26.2853 65.4545 27.416L64.2705 35H58.4785ZM77.7013 35.352C76.6773 35.352 75.7599 35.1173 74.9493 34.648C74.1386 34.1787 73.4879 33.5707 72.9973 32.824C72.5279 32.056 72.2933 31.2347 72.2933 30.36C72.2933 28.696 73.0079 27.4907 74.4373 26.744C75.8666 25.976 78.0853 25.592 81.0933 25.592H83.2693L83.3013 25.304C83.4293 24.6 83.2693 24.0453 82.8213 23.64C82.3946 23.2347 81.6906 23.032 80.7093 23.032C78.8319 23.032 76.9973 23.544 75.2053 24.568L74.1493 20.792C74.9813 20.2373 76.0693 19.7893 77.4133 19.448C78.7786 19.0853 80.1439 18.904 81.5093 18.904C83.4506 18.904 84.9653 19.256 86.0533 19.96C87.1413 20.664 87.8666 21.6133 88.2292 22.808C88.6133 23.9813 88.6879 25.2613 88.4533 26.648L87.1413 35H81.8613L82.2133 32.728C81.7013 33.6667 81.0506 34.3387 80.2613 34.744C79.4933 35.1493 78.6399 35.352 77.7013 35.352ZM79.6853 31.64C80.5173 31.64 81.1999 31.3947 81.7333 30.904C82.2666 30.4133 82.5973 29.7733 82.7253 28.984L82.8213 28.28H81.0933C79.8986 28.28 79.0346 28.4187 78.5013 28.696C77.9893 28.952 77.7333 29.3787 77.7333 29.976C77.7333 30.5093 77.9146 30.9253 78.2773 31.224C78.6399 31.5013 79.1093 31.64 79.6853 31.64ZM94.8365 35L90.4205 19.256H96.1165L98.1645 28.184L103.189 19.256H109.045L99.5405 35H94.8365ZM116.062 35.352C114.377 35.352 112.905 35.0533 111.646 34.456C110.387 33.8373 109.406 32.9733 108.702 31.864C107.998 30.7547 107.646 29.464 107.646 27.992C107.646 26.1787 108.041 24.5893 108.83 23.224C109.641 21.8587 110.729 20.8027 112.094 20.056C113.459 19.288 114.995 18.904 116.702 18.904C118.494 18.904 119.934 19.288 121.022 20.056C122.131 20.8027 122.899 21.8267 123.326 23.128C123.753 24.4293 123.859 25.8693 123.646 27.448L123.518 28.28H112.926C112.969 29.2187 113.321 29.9333 113.982 30.424C114.643 30.9147 115.55 31.16 116.702 31.16C117.577 31.16 118.43 31.0427 119.262 30.808C120.115 30.552 120.851 30.2 121.47 29.752L122.654 33.464C121.865 34.0613 120.894 34.5307 119.742 34.872C118.611 35.192 117.385 35.352 116.062 35.352ZM116.638 22.616C115.678 22.616 114.921 22.904 114.366 23.48C113.833 24.056 113.47 24.76 113.278 25.592H119.326C119.369 24.7173 119.166 24.0027 118.718 23.448C118.291 22.8933 117.598 22.616 116.638 22.616ZM131.315 35.352C129.225 35.352 127.721 34.7867 126.803 33.656C125.907 32.5253 125.619 30.8827 125.939 28.728L128.531 12.44H134.227L131.635 28.632C131.422 30.0827 131.998 30.808 133.363 30.808C133.577 30.808 133.79 30.7973 134.003 30.776C134.238 30.7547 134.462 30.7333 134.675 30.712L133.939 35.032C133.171 35.2453 132.297 35.352 131.315 35.352ZM136.488 35L140.04 12.44H155.784L155.08 16.984H145.224L144.488 21.528H153.64L152.936 26.04H143.784L142.376 35H136.488ZM159.483 35.352C158.459 35.352 157.541 35.1173 156.731 34.648C155.92 34.1787 155.269 33.5707 154.779 32.824C154.309 32.056 154.075 31.2347 154.075 30.36C154.075 28.696 154.789 27.4907 156.219 26.744C157.648 25.976 159.867 25.592 162.875 25.592H165.051L165.083 25.304C165.211 24.6 165.051 24.0453 164.603 23.64C164.176 23.2347 163.472 23.032 162.491 23.032C160.613 23.032 158.779 23.544 156.987 24.568L155.931 20.792C156.763 20.2373 157.851 19.7893 159.195 19.448C160.56 19.0853 161.925 18.904 163.291 18.904C165.232 18.904 166.747 19.256 167.835 19.96C168.923 20.664 169.648 21.6133 170.01 22.808C170.395 23.9813 170.469 25.2613 170.235 26.648L168.923 35H163.643L163.995 32.728C163.483 33.6667 162.832 34.3387 162.043 34.744C161.275 35.1493 160.421 35.352 159.483 35.352ZM161.467 31.64C162.299 31.64 162.981 31.3947 163.515 30.904C164.048 30.4133 164.379 29.7733 164.507 28.984L164.603 28.28H162.875C161.68 28.28 160.816 28.4187 160.283 28.696C159.771 28.952 159.515 29.3787 159.515 29.976C159.515 30.5093 159.696 30.9253 160.059 31.224C160.421 31.5013 160.891 31.64 161.467 31.64ZM179.078 35.352C177.691 35.352 176.358 35.2027 175.078 34.904C173.819 34.6053 172.753 34.1467 171.878 33.528L173.446 29.912C174.235 30.4027 175.131 30.7973 176.134 31.096C177.158 31.3733 178.129 31.512 179.046 31.512C179.878 31.512 180.486 31.384 180.87 31.128C181.254 30.872 181.446 30.552 181.446 30.168C181.446 29.8907 181.339 29.6773 181.126 29.528C180.934 29.3573 180.603 29.2293 180.134 29.144L177.286 28.664C175.963 28.472 174.939 28.0133 174.214 27.288C173.51 26.5413 173.158 25.6133 173.158 24.504C173.158 23.5227 173.446 22.6053 174.022 21.752C174.619 20.8987 175.494 20.216 176.646 19.704C177.819 19.1707 179.281 18.904 181.03 18.904C181.99 18.904 183.014 19.0427 184.102 19.32C185.19 19.576 186.161 19.9813 187.014 20.536L185.478 24.088C184.753 23.6187 183.963 23.2773 183.11 23.064C182.278 22.8293 181.478 22.712 180.71 22.712C179.835 22.712 179.195 22.8507 178.79 23.128C178.385 23.4053 178.182 23.7467 178.182 24.152C178.182 24.3867 178.257 24.5893 178.406 24.76C178.577 24.9307 178.854 25.048 179.238 25.112L182.086 25.56C183.558 25.816 184.657 26.3067 185.382 27.032C186.107 27.7573 186.47 28.664 186.47 29.752C186.47 31.5867 185.787 32.984 184.422 33.944C183.078 34.8827 181.297 35.352 179.078 35.352ZM196.493 35.352C194.871 35.352 193.549 35.064 192.525 34.488C191.501 33.912 190.786 33.112 190.381 32.088C189.975 31.064 189.879 29.8907 190.093 28.568L190.925 23.448H187.981L188.653 19.256H191.597L192.301 14.68H197.997L197.293 19.256H201.837L201.165 23.448H196.621L195.821 28.344C195.693 29.2187 195.821 29.848 196.205 30.232C196.61 30.5947 197.197 30.776 197.965 30.776C198.477 30.776 199.042 30.68 199.661 30.488L199.821 34.712C199.373 34.9253 198.85 35.0853 198.253 35.192C197.655 35.2987 197.069 35.352 196.493 35.352Z" fill="white"/>
</svg>
