<svg width="32" height="32" viewBox="0 0 32 32" fill="none" xmlns="http://www.w3.org/2000/svg">
<path fill-rule="evenodd" clip-rule="evenodd" d="M11.9199 7.35997C11.9199 6.69723 12.4572 6.15997 13.1199 6.15997H28.9599C29.6227 6.15997 30.1599 6.69723 30.1599 7.35997C30.1599 8.02271 29.6227 8.55997 28.9599 8.55997H13.1199C12.4572 8.55997 11.9199 8.02271 11.9199 7.35997Z" fill="white"/>
<path fill-rule="evenodd" clip-rule="evenodd" d="M6.87988 16C6.87988 15.3372 7.41714 14.8 8.07988 14.8H23.9199C24.5826 14.8 25.1199 15.3372 25.1199 16C25.1199 16.6627 24.5826 17.2 23.9199 17.2H8.07988C7.41714 17.2 6.87988 16.6627 6.87988 16Z" fill="white"/>
<path fill-rule="evenodd" clip-rule="evenodd" d="M1.83984 24.64C1.83984 23.9773 2.3771 23.44 3.03984 23.44H18.8798C19.5426 23.44 20.0798 23.9773 20.0798 24.64C20.0798 25.3027 19.5426 25.84 18.8798 25.84H3.03984C2.3771 25.84 1.83984 25.3027 1.83984 24.64Z" fill="white"/>
</svg>
