<svg width="79" height="80" viewBox="0 0 79 80" fill="none" xmlns="http://www.w3.org/2000/svg">
<path d="M58.9666 51.6528C61.7644 51.6523 64.4885 50.7552 66.7393 49.0932C68.99 47.4312 70.6489 45.0917 71.4728 42.4179C72.2966 39.744 72.2419 36.8766 71.3168 34.2361C70.3917 31.5956 68.6448 29.321 66.3323 27.7459C67.0198 26.158 67.2753 24.4166 67.073 22.6981C66.8707 20.9797 66.2178 19.3452 65.1804 17.9603C64.143 16.5755 62.758 15.4894 61.1657 14.8122C59.5733 14.135 57.8303 13.8907 56.1132 14.1041C54.6379 10.3279 51.9309 7.16054 48.4307 5.11498C44.9306 3.06942 40.8423 2.26554 36.8282 2.83357C32.8142 3.4016 29.1094 5.30826 26.3143 8.24467C23.5191 11.1811 21.7972 14.9752 21.4276 19.0124C17.2582 19.4303 13.4081 21.432 10.671 24.6048C7.93392 27.7776 6.51849 31.8796 6.71654 36.0652C6.9146 40.2508 8.71104 44.2009 11.7355 47.1011C14.76 50.0013 18.7819 51.6305 22.9721 51.6528H58.9666Z" fill="white"/>
<path d="M58.9667 40.1509H22.9723C19.6419 40.146 16.3928 39.1223 13.6612 37.2172C10.9296 35.3121 8.84629 32.6168 7.691 29.4933C6.7431 31.9682 6.41214 34.6368 6.72672 37.2683C7.04129 39.8998 7.99194 42.4152 9.49651 44.597C11.0011 46.7787 13.0143 48.5613 15.3622 49.7907C17.7101 51.02 20.322 51.6591 22.9723 51.6528H58.9667C61.1929 51.659 63.3837 51.0958 65.3309 50.0166C67.278 48.9374 68.9168 47.3781 70.0914 45.487C71.266 43.5959 71.9374 41.4358 72.0418 39.212C72.1462 36.9882 71.6801 34.7747 70.6878 32.7819C69.6227 34.9865 67.9585 36.8468 65.8857 38.15C63.8129 39.4531 61.4152 40.1466 58.9667 40.1509Z" fill="#E3E3E3"/>
<path d="M55.6943 51.6528H58.9666C61.7644 51.6523 64.4885 50.7552 66.7393 49.0932C68.99 47.4312 70.6489 45.0917 71.4728 42.4179C72.2966 39.744 72.2419 36.8766 71.3168 34.2361C70.3917 31.5956 68.6448 29.321 66.3323 27.7459C67.0198 26.158 67.2753 24.4166 67.073 22.6981C66.8707 20.9797 66.2178 19.3452 65.1804 17.9603C64.143 16.5755 62.758 15.4894 61.1657 14.8122C59.5733 14.135 57.8303 13.8907 56.1132 14.1041C54.6379 10.3279 51.9309 7.16054 48.4307 5.11498C44.9306 3.06942 40.8423 2.26554 36.8282 2.83357C32.8142 3.4016 29.1094 5.30826 26.3143 8.24467C23.5191 11.1811 21.7972 14.9752 21.4276 19.0124C17.2582 19.4303 13.4081 21.432 10.671 24.6048C7.93392 27.7776 6.51849 31.8796 6.71654 36.0652C6.9146 40.2508 8.71104 44.2009 11.7355 47.1011C14.76 50.0013 18.7819 51.6305 22.9721 51.6528H26.2443" stroke="#191919" stroke-width="1.26667" stroke-linecap="round" stroke-linejoin="round"/>
<path d="M47.5137 58.1972C47.5137 59.9329 46.8242 61.5975 45.5969 62.8248C44.3695 64.0522 42.7049 64.7417 40.9692 64.7417C39.2336 64.7417 37.569 64.0522 36.3416 62.8248C35.1143 61.5975 34.4248 59.9329 34.4248 58.1972C34.4248 54.5814 40.9692 45.1083 40.9692 45.1083C40.9692 45.1083 47.5137 54.5978 47.5137 58.1972Z" fill="#C2F3FF"/>
<path d="M65.5108 71.2861C65.5108 73.0218 64.8213 74.6864 63.5939 75.9137C62.3666 77.1411 60.702 77.8306 58.9663 77.8306C57.2306 77.8306 55.566 77.1411 54.3387 75.9137C53.1114 74.6864 52.4219 73.0218 52.4219 71.2861C52.4219 67.6703 58.9663 58.1972 58.9663 58.1972C58.9663 58.1972 65.5108 67.6867 65.5108 71.2861Z" fill="#C2F3FF"/>
<path d="M29.5166 71.2861C29.5166 73.0218 28.8271 74.6864 27.5998 75.9137C26.3725 77.1411 24.7079 77.8306 22.9722 77.8306C21.2365 77.8306 19.5719 77.1411 18.3446 75.9137C17.1172 74.6864 16.4277 73.0218 16.4277 71.2861C16.4277 67.6703 22.9722 58.1972 22.9722 58.1972C22.9722 58.1972 29.5166 67.6867 29.5166 71.2861Z" fill="#C2F3FF"/>
<path d="M40.9692 57.569C39.8752 57.5685 38.7989 57.2928 37.8394 56.7673C36.8799 56.2418 36.068 55.4834 35.4785 54.5618C34.9029 55.697 34.5455 56.9302 34.4248 58.1972C34.4248 59.9329 35.1143 61.5975 36.3416 62.8249C37.569 64.0522 39.2336 64.7417 40.9692 64.7417C42.7049 64.7417 44.3695 64.0522 45.5969 62.8249C46.8242 61.5975 47.5137 59.9329 47.5137 58.1972C47.393 56.9302 47.0356 55.697 46.46 54.5618C45.8703 55.4832 45.0583 56.2414 44.0989 56.7669C43.1394 57.2924 42.0632 57.5682 40.9692 57.569Z" fill="#66E1FF"/>
<path d="M58.9663 70.6578C57.8723 70.6574 56.796 70.3817 55.8365 69.8562C54.877 69.3307 54.0651 68.5722 53.4755 67.6507C52.9 68.7859 52.5426 70.019 52.4219 71.2861C52.4219 73.0218 53.1114 74.6864 54.3387 75.9137C55.566 77.141 57.2306 77.8305 58.9663 77.8305C60.702 77.8305 62.3666 77.141 63.5939 75.9137C64.8213 74.6864 65.5108 73.0218 65.5108 71.2861C65.3901 70.019 65.0326 68.7859 64.4571 67.6507C63.8673 68.572 63.0554 69.3303 62.0959 69.8558C61.1365 70.3813 60.0603 70.6571 58.9663 70.6578Z" fill="#66E1FF"/>
<path d="M22.9722 70.6578C21.8782 70.6574 20.8019 70.3817 19.8424 69.8562C18.8828 69.3307 18.0709 68.5722 17.4814 67.6507C16.9058 68.7859 16.5484 70.019 16.4277 71.2861C16.4277 73.0218 17.1172 74.6864 18.3446 75.9137C19.5719 77.141 21.2365 77.8305 22.9722 77.8305C24.7079 77.8305 26.3725 77.141 27.5998 75.9137C28.8271 74.6864 29.5166 73.0218 29.5166 71.2861C29.3959 70.019 29.0385 68.7859 28.463 67.6507C27.8732 68.572 27.0613 69.3303 26.1018 69.8558C25.1423 70.3813 24.0661 70.6571 22.9722 70.6578Z" fill="#66E1FF"/>
<path d="M47.5137 58.1972C47.5137 59.9329 46.8242 61.5975 45.5969 62.8248C44.3695 64.0522 42.7049 64.7417 40.9692 64.7417C39.2336 64.7417 37.569 64.0522 36.3416 62.8248C35.1143 61.5975 34.4248 59.9329 34.4248 58.1972C34.4248 54.5814 40.9692 45.1083 40.9692 45.1083C40.9692 45.1083 47.5137 54.5978 47.5137 58.1972Z" stroke="#191919" stroke-width="1.26667" stroke-linecap="round" stroke-linejoin="round"/>
<path d="M65.5108 71.2861C65.5108 73.0218 64.8213 74.6864 63.5939 75.9137C62.3666 77.1411 60.702 77.8306 58.9663 77.8306C57.2306 77.8306 55.566 77.1411 54.3387 75.9137C53.1114 74.6864 52.4219 73.0218 52.4219 71.2861C52.4219 67.6703 58.9663 58.1972 58.9663 58.1972C58.9663 58.1972 65.5108 67.6867 65.5108 71.2861Z" stroke="#191919" stroke-width="1.26667" stroke-linecap="round" stroke-linejoin="round"/>
<path d="M29.5166 71.2861C29.5166 73.0218 28.8271 74.6864 27.5998 75.9137C26.3725 77.1411 24.7079 77.8306 22.9722 77.8306C21.2365 77.8306 19.5719 77.1411 18.3446 75.9137C17.1172 74.6864 16.4277 73.0218 16.4277 71.2861C16.4277 67.6703 22.9722 58.1972 22.9722 58.1972C22.9722 58.1972 29.5166 67.6867 29.5166 71.2861Z" stroke="#191919" stroke-width="1.26667" stroke-linecap="round" stroke-linejoin="round"/>
</svg>
