<svg width="24" height="24" viewBox="0 0 24 24" fill="none" xmlns="http://www.w3.org/2000/svg">
<path d="M17.9997 15.5C18.8547 15.4999 19.6872 15.2257 20.3751 14.7178C21.0629 14.2099 21.5699 13.4949 21.8216 12.6778C22.0734 11.8607 22.0567 10.9844 21.774 10.1774C21.4913 9.37046 20.9574 8.67535 20.2507 8.19401C20.4608 7.70874 20.5389 7.17656 20.4771 6.65139C20.4152 6.12622 20.2157 5.62672 19.8987 5.2035C19.5816 4.78028 19.1584 4.44838 18.6718 4.24142C18.1851 4.03446 17.6525 3.95981 17.1277 4.02501C16.6769 2.87102 15.8496 1.90306 14.7799 1.27793C13.7103 0.6528 12.4609 0.407131 11.2342 0.580723C10.0075 0.754314 8.87529 1.337 8.02108 2.23437C7.16687 3.13174 6.64066 4.29124 6.52771 5.52501C5.25353 5.65273 4.07692 6.26445 3.24046 7.23407C2.40399 8.20369 1.97143 9.45728 2.03196 10.7364C2.09249 12.0155 2.64148 13.2227 3.56577 14.109C4.49005 14.9953 5.71916 15.4932 6.99971 15.5H17.9997Z" fill="white"/>
<path d="M18 11.985H6.99995C5.98219 11.9835 4.98926 11.6706 4.15447 11.0884C3.31968 10.5062 2.68301 9.68256 2.32995 8.728C2.04027 9.48435 1.93913 10.2999 2.03526 11.1041C2.1314 11.9083 2.42192 12.677 2.88172 13.3437C3.34152 14.0105 3.95676 14.5552 4.67429 14.9309C5.39181 15.3066 6.19003 15.5019 6.99995 15.5H18C18.6802 15.5016 19.3495 15.3293 19.9444 14.9994C20.5393 14.6696 21.04 14.1931 21.3989 13.6152C21.7578 13.0374 21.963 12.3774 21.9951 11.6979C22.0271 11.0184 21.8849 10.342 21.582 9.733C21.2564 10.4067 20.7479 10.9752 20.1144 11.3735C19.481 11.7718 18.7482 11.9837 18 11.985Z" fill="#E3E3E3"/>
<path d="M17.9997 15.5C18.8547 15.4999 19.6872 15.2257 20.3751 14.7178C21.0629 14.2099 21.5699 13.4949 21.8216 12.6778C22.0734 11.8607 22.0567 10.9844 21.774 10.1774C21.4913 9.37046 20.9574 8.67535 20.2507 8.19401C20.4608 7.70874 20.5389 7.17656 20.4771 6.65139C20.4152 6.12622 20.2157 5.62672 19.8987 5.2035C19.5816 4.78028 19.1584 4.44838 18.6718 4.24142C18.1851 4.03446 17.6525 3.95981 17.1277 4.02501C16.6769 2.87102 15.8496 1.90306 14.7799 1.27793C13.7103 0.6528 12.4609 0.407131 11.2342 0.580723C10.0075 0.754314 8.87529 1.337 8.02108 2.23437C7.16687 3.13174 6.64066 4.29124 6.52771 5.52501C5.25353 5.65273 4.07692 6.26445 3.24046 7.23407C2.40399 8.20369 1.97143 9.45728 2.03196 10.7364C2.09249 12.0155 2.64148 13.2227 3.56577 14.109C4.49005 14.9953 5.71916 15.4932 6.99971 15.5" stroke="#191919" stroke-linecap="round" stroke-linejoin="round"/>
<path d="M9.50022 23.5L11.5002 16.5H9.66322C9.58585 16.5 9.50953 16.4821 9.44027 16.4476C9.37101 16.4131 9.31069 16.363 9.26407 16.3013C9.21744 16.2396 9.18578 16.1678 9.17158 16.0918C9.15738 16.0157 9.16102 15.9374 9.18222 15.863L10.8962 9.863C10.926 9.75842 10.9891 9.6664 11.0759 9.6009C11.1627 9.53539 11.2685 9.49997 11.3772 9.5H15.1172C15.2057 9.49998 15.2926 9.52343 15.369 9.56797C15.4455 9.6125 15.5087 9.67651 15.5523 9.75348C15.5959 9.83044 15.6184 9.91761 15.6173 10.0061C15.6162 10.0945 15.5917 10.1811 15.5462 10.257L13.0002 14.5H15.0222C15.1139 14.5009 15.2036 14.5271 15.2814 14.5755C15.3592 14.624 15.4222 14.6929 15.4635 14.7748C15.5048 14.8567 15.5228 14.9483 15.5155 15.0397C15.5082 15.1311 15.476 15.2187 15.4222 15.293L9.50022 23.5Z" fill="#FFEF5E"/>
<path d="M15.5462 10.257C15.5917 10.1811 15.6162 10.0945 15.6173 10.0061C15.6184 9.91761 15.5959 9.83044 15.5523 9.75348C15.5087 9.67651 15.4455 9.6125 15.369 9.56797C15.2926 9.52343 15.2057 9.49998 15.1172 9.5H11.3772C11.2685 9.49997 11.1627 9.53539 11.0759 9.6009C10.9891 9.6664 10.926 9.75842 10.8962 9.863L9.18222 15.863C9.16102 15.9374 9.15738 16.0157 9.17158 16.0918C9.18578 16.1678 9.21744 16.2396 9.26407 16.3013C9.31069 16.363 9.37101 16.4131 9.44027 16.4476C9.50953 16.4821 9.58585 16.5 9.66322 16.5H11.0302L13.0302 14.5H13.0002L15.5462 10.257Z" fill="#FFF9BF"/>
<path d="M9.50022 23.5L11.5002 16.5H9.66322C9.58585 16.5 9.50953 16.4821 9.44027 16.4476C9.37101 16.4131 9.31069 16.363 9.26407 16.3013C9.21744 16.2396 9.18578 16.1678 9.17158 16.0918C9.15738 16.0157 9.16102 15.9374 9.18222 15.863L10.8962 9.863C10.926 9.75842 10.9891 9.6664 11.0759 9.6009C11.1627 9.53539 11.2685 9.49997 11.3772 9.5H15.1172C15.2057 9.49998 15.2926 9.52343 15.369 9.56797C15.4455 9.6125 15.5087 9.67651 15.5523 9.75348C15.5959 9.83044 15.6184 9.91761 15.6173 10.0061C15.6162 10.0945 15.5917 10.1811 15.5462 10.257L13.0002 14.5H15.0222C15.1139 14.5009 15.2036 14.5271 15.2814 14.5755C15.3592 14.624 15.4222 14.6929 15.4635 14.7748C15.5048 14.8567 15.5228 14.9483 15.5155 15.0397C15.5082 15.1311 15.476 15.2187 15.4222 15.293L9.50022 23.5Z" stroke="#191919" stroke-linecap="round" stroke-linejoin="round"/>
</svg>
