<svg width="24" height="24" viewBox="0 0 24 24" fill="none" xmlns="http://www.w3.org/2000/svg">
<g clip-path="url(#clip0_19_872)">
<path d="M19 12C19 10.1435 18.2625 8.36301 16.9497 7.05025C15.637 5.7375 13.8565 5 12 5C10.1435 5 8.36301 5.7375 7.05025 7.05025C5.7375 8.36301 5 10.1435 5 12C5 12.9193 5.18106 13.8295 5.53284 14.6788C5.88463 15.5281 6.40024 16.2997 7.05025 16.9497C7.70026 17.5998 8.47194 18.1154 9.32122 18.4672C10.1705 18.8189 11.0807 19 12 19C12.9193 19 13.8295 18.8189 14.6788 18.4672C15.5281 18.1154 16.2997 17.5998 16.9497 16.9497C17.5998 16.2997 18.1154 15.5281 18.4672 14.6788C18.8189 13.8295 19 12.9193 19 12Z" fill="#FFF9BF"/>
<path d="M12 15.5C10.4493 15.4985 8.94295 14.9821 7.71746 14.0319C6.49196 13.0817 5.61668 11.7515 5.229 10.25C4.95741 11.2856 4.92696 12.3696 5.13999 13.4188C5.35303 14.4679 5.80388 15.4543 6.45785 16.3019C7.11183 17.1495 7.95151 17.8358 8.91231 18.308C9.87311 18.7803 10.9294 19.0258 12 19.0258C13.0706 19.0258 14.1269 18.7803 15.0877 18.308C16.0485 17.8358 16.8882 17.1495 17.5421 16.3019C18.1961 15.4543 18.647 14.4679 18.86 13.4188C19.073 12.3696 19.0426 11.2856 18.771 10.25C18.3833 11.7515 17.508 13.0817 16.2825 14.0319C15.057 14.9821 13.5507 15.4985 12 15.5Z" fill="#FFEF5E"/>
<path d="M19 12C19 10.1435 18.2625 8.36301 16.9497 7.05025C15.637 5.7375 13.8565 5 12 5C10.1435 5 8.36301 5.7375 7.05025 7.05025C5.7375 8.36301 5 10.1435 5 12C5 12.9193 5.18106 13.8295 5.53284 14.6788C5.88463 15.5281 6.40024 16.2997 7.05025 16.9497C7.70026 17.5998 8.47194 18.1154 9.32122 18.4672C10.1705 18.8189 11.0807 19 12 19C12.9193 19 13.8295 18.8189 14.6788 18.4672C15.5281 18.1154 16.2997 17.5998 16.9497 16.9497C17.5998 16.2997 18.1154 15.5281 18.4672 14.6788C18.8189 13.8295 19 12.9193 19 12Z" stroke="#191919" stroke-linecap="round" stroke-linejoin="round"/>
<path d="M12 21V23" stroke="#191919" stroke-linecap="round" stroke-linejoin="round"/>
<path d="M21 12H23" stroke="#191919" stroke-linecap="round" stroke-linejoin="round"/>
<path d="M12 3V1" stroke="#191919" stroke-linecap="round" stroke-linejoin="round"/>
<path d="M3 12H1" stroke="#191919" stroke-linecap="round" stroke-linejoin="round"/>
<path d="M5.63668 18.364L4.22168 19.779" stroke="#191919" stroke-linecap="round" stroke-linejoin="round"/>
<path d="M18.3643 18.364L19.7783 19.778" stroke="#191919" stroke-linecap="round" stroke-linejoin="round"/>
<path d="M18.3652 5.63699L19.7792 4.22299" stroke="#191919" stroke-linecap="round" stroke-linejoin="round"/>
<path d="M5.63568 5.63699L4.22168 4.22299" stroke="#191919" stroke-linecap="round" stroke-linejoin="round"/>
</g>
<defs>
<clipPath id="clip0_19_872">
<rect width="24" height="24" fill="white"/>
</clipPath>
</defs>
</svg>
