<svg width="17" height="16" viewBox="0 0 17 16" fill="none" xmlns="http://www.w3.org/2000/svg">
<g clip-path="url(#clip0_16_33)">
<path d="M9.26383 1.52C9.74122 1.52 10.1991 1.70965 10.5366 2.04721C10.8742 2.38478 11.0638 2.84261 11.0638 3.32C11.0638 3.79739 10.8742 4.25523 10.5366 4.5928C10.1991 4.93036 9.74122 5.12 9.26383 5.12H2.42383" stroke="white" stroke-width="1.6" stroke-linecap="round" stroke-linejoin="round"/>
<path d="M5.30469 8H13.5847C14.0621 8 14.5199 8.18964 14.8575 8.52721C15.195 8.86477 15.3847 9.32261 15.3847 9.8C15.3847 10.2774 15.195 10.7352 14.8575 11.0728C14.5199 11.4104 14.0621 11.6 13.5847 11.6" stroke="white" stroke-width="1.6" stroke-linecap="round" stroke-linejoin="round"/>
<path d="M3.86426 10.88H9.26426C9.74165 10.88 10.1995 11.0696 10.5371 11.4072C10.8746 11.7448 11.0643 12.2026 11.0643 12.68C11.0643 13.1574 10.8746 13.6152 10.5371 13.9528C10.1995 14.2904 9.74165 14.48 9.26426 14.48" stroke="white" stroke-width="1.6" stroke-linecap="round" stroke-linejoin="round"/>
</g>
<defs>
<clipPath id="clip0_16_33">
<rect width="16" height="16" fill="white" transform="translate(0.904297)"/>
</clipPath>
</defs>
</svg>
