<svg width="24" height="24" viewBox="0 0 24 24" fill="none" xmlns="http://www.w3.org/2000/svg">
<path d="M6.25574 18.515C4.85872 18.5387 3.50201 18.0464 2.4452 17.1324C1.38839 16.2184 0.7057 14.9468 0.527741 13.561C0.449218 12.7946 0.532161 12.0203 0.771222 11.2879C1.01028 10.5556 1.40016 9.88143 1.91571 9.30897C2.43126 8.73651 3.06105 8.27844 3.76447 7.96428C4.4679 7.65013 5.22935 7.48686 5.99974 7.485C6.00317 6.07084 6.50599 4.70333 7.41948 3.6238C8.33297 2.54426 9.59842 1.82207 10.9925 1.58468C12.3866 1.34729 13.8198 1.60995 15.0391 2.3263C16.2584 3.04266 17.1855 4.16667 17.6567 5.5C18.2403 5.4431 18.8287 5.53369 19.3681 5.76345C19.9075 5.99322 20.3805 6.35479 20.7437 6.81499C21.107 7.27519 21.3488 7.81926 21.447 8.39726C21.5452 8.97526 21.4966 9.56866 21.3057 10.123C21.9752 10.5247 22.5292 11.0929 22.9137 11.7724C23.2982 12.4518 23.5001 13.2193 23.4997 14C23.4997 15.1975 23.0241 16.3459 22.1773 17.1926C21.3306 18.0393 20.1822 18.515 18.9847 18.515H6.25574Z" fill="white"/>
<path d="M18.9852 14.475H6.2552C5.11403 14.4813 3.99654 14.1496 3.04357 13.5217C2.09061 12.8939 1.34482 11.998 0.900204 10.947C0.565359 11.7751 0.43667 12.6722 0.525204 13.561C0.703566 14.9465 1.38624 16.2177 2.44274 17.1316C3.49924 18.0455 4.85547 18.538 6.2522 18.515H18.9822C19.7536 18.5175 20.5126 18.3217 21.1865 17.9463C21.8604 17.5709 22.4265 17.0286 22.8304 16.3715C23.2344 15.7143 23.4626 14.9644 23.4932 14.1936C23.5238 13.4228 23.3558 12.6571 23.0052 11.97C22.6343 12.72 22.0616 13.3517 21.3515 13.7942C20.6413 14.2367 19.8219 14.4725 18.9852 14.475Z" fill="#E3E3E3"/>
<path d="M18.9997 18.515C19.986 18.5114 20.944 18.185 21.7274 17.5857C22.5107 16.9863 23.0763 16.147 23.3377 15.196C23.5992 14.245 23.542 13.2345 23.1751 12.319C22.8082 11.4035 22.1516 10.6332 21.3057 10.126C21.4973 9.5715 21.5463 8.97774 21.4484 8.39932C21.3505 7.82089 21.1088 7.27636 20.7455 6.81575C20.3822 6.35515 19.9089 5.99327 19.3692 5.76335C18.8294 5.53344 18.2406 5.44288 17.6567 5.5C17.1855 4.16667 16.2584 3.04266 15.0391 2.3263C13.8198 1.60995 12.3866 1.34729 10.9925 1.58468C9.59841 1.82207 8.33296 2.54426 7.41947 3.6238C6.50598 4.70333 6.00316 6.07084 5.99973 7.485C5.05935 7.48812 4.13536 7.73151 3.31548 8.19208C2.4956 8.65264 1.80703 9.31511 1.31512 10.1166C0.823218 10.9181 0.544305 11.8319 0.504858 12.7715C0.46541 13.7111 0.666738 14.6451 1.08973 15.485" stroke="#191919" stroke-linecap="round" stroke-linejoin="round"/>
<path d="M0.5 17.515H9.5C11.5 17.515 11.5 15.015 9.5 15.015" stroke="#191919" stroke-linecap="round" stroke-linejoin="round"/>
<path d="M0.5 19.515H13.5C16 19.515 16 22.515 13.5 22.515" stroke="#191919" stroke-linecap="round" stroke-linejoin="round"/>
</svg>
